# xmcd CD database file
#
# Track frame offsets:
#	150
#	23261
#	52843
#	77472
#	102939
#	131047
#	149262
#	172124
#	196875
#	223924
#
# Disc length: 3237 seconds
#
# Revision: 2
# Processed by: cddbd v1.4b41PL1 Copyright (c) Steve Scherf et al.
# Submitted via: Feurio! 1.50.2ß - http://www.feurio.com
#
DISCID=820ca30a
DTITLE=Mama Sissoko - Le soleil de minuit
DYEAR=1900
DGENRE=
TTITLE0=Jarabi Muso
TTITLE1=Boma ma
TTITLE2=Safiaton
TTITLE3=Manssane Cisse
TTITLE4=Soleil de minuit
TTITLE5=Iri
TTITLE6=Fisirivale
TTITLE7=Namissa
TTITLE8=Commissariat
TTITLE9=Hommage à K.
EXTD=
EXTT0=
EXTT1=
EXTT2=
EXTT3=
EXTT4=
EXTT5=
EXTT6=
EXTT7=
EXTT8=
EXTT9=
PLAYORDER=
